<svg id="Layer_2" data-name="Layer 2" xmlns="http://www.w3.org/2000/svg" width="44" height="44" viewBox="0 0 44 44">
  <g id="invisible_box" data-name="invisible box">
    <rect id="Rect치ngulo_186" data-name="Rect치ngulo 186" width="44" height="44" fill="none"/>
  </g>
  <g id="Icons" transform="translate(2.75 4.125)">
    <g id="Grupo_133" data-name="Grupo 133">
      <path id="Trazado_324" data-name="Trazado 324" d="M38.933,30.892a4.217,4.217,0,0,0-3.667-1.008l-9.075,1.558a3.942,3.942,0,0,0-1.283-2.933L18.4,22H4.833a1.833,1.833,0,1,0,0,3.667h12.1l5.408,5.408a.746.746,0,1,1-1.1,1.008l-3.208-3.117a1.833,1.833,0,0,0-2.567,2.567l3.208,3.208a4.492,4.492,0,0,0,3.117,1.283,5.317,5.317,0,0,0,1.65-.367h0l12.467-2.2a1.375,1.375,0,0,1,.733.183,1.1,1.1,0,0,1,.275.733.825.825,0,0,1-.733.825l-17.05,3.117L9.142,30.25H4.833A1.833,1.833,0,0,0,3,32.083a1.742,1.742,0,0,0,1.833,1.742H7.858l10.175,8.342,18.792-3.392a4.4,4.4,0,0,0,3.758-4.4,4.217,4.217,0,0,0-1.65-3.483Z" transform="translate(-3 -5.958)" fill="#fff"/>
      <g id="Layer_2-2" data-name="Layer 2" transform="translate(18.607)">
        <g id="invisible_box-2" data-name="invisible box">
          <rect id="Rect치ngulo_187" data-name="Rect치ngulo 187" width="18.796" height="18.796" fill="none"/>
        </g>
        <g id="icons_Q2" data-name="icons Q2" transform="translate(0.825 0.643)">
          <path id="Trazado_334" data-name="Trazado 334" d="M15.2,5.692a3.136,3.136,0,0,1,2.31.99,3.177,3.177,0,0,1,.99,2.31,5,5,0,0,1-1.609,3.053l-5.817,6.189L5.259,12.045A5,5,0,0,1,3.65,8.992a3.177,3.177,0,0,1,.99-2.31,3.136,3.136,0,0,1,2.31-.99A3.6,3.6,0,0,1,9.632,7.548l1.073,1.815a.454.454,0,0,0,.743,0L12.52,7.548A3.6,3.6,0,0,1,15.2,5.692M15.2,4a5.333,5.333,0,0,0-4.126,2.682A5.333,5.333,0,0,0,6.951,4,4.951,4.951,0,0,0,3.444,5.485,4.91,4.91,0,0,0,2,8.992,6.719,6.719,0,0,0,4.063,13.2l6.725,7.179a.413.413,0,0,0,.578,0L18.09,13.2a6.719,6.719,0,0,0,2.063-4.208A4.992,4.992,0,0,0,15.2,4Z" transform="translate(-2 -4)" fill="#fff"/>
          <path id="Trazado_334_-_Contorno" data-name="Trazado 334 - Contorno" d="M6.948,3h0a5.881,5.881,0,0,1,4.126,2.029A5.882,5.882,0,0,1,15.2,3h.008a5.992,5.992,0,0,1,5.943,5.992,7.647,7.647,0,0,1-2.314,4.871l-.019.021-6.755,7.209a1.413,1.413,0,0,1-1.978,0l-.03-.03-6.744-7.2A7.649,7.649,0,0,1,1,8.995,6,6,0,0,1,6.945,3Zm4.129,7.556a1.455,1.455,0,0,1-1.189-.618l-.023-.032L8.76,8.037A2.7,2.7,0,0,0,6.951,6.692H6.927a2.143,2.143,0,0,0-1.557.674l-.041.041A2.186,2.186,0,0,0,4.65,8.99,4.259,4.259,0,0,0,6,11.369l5.081,5.4,5.081-5.4A4.261,4.261,0,0,0,17.5,8.992a2.187,2.187,0,0,0-.678-1.585l-.041-.041a2.143,2.143,0,0,0-1.557-.674H15.2a2.7,2.7,0,0,0-1.809,1.345l-.012.02L12.289,9.906l-.023.032A1.455,1.455,0,0,1,11.076,10.556Z" transform="translate(-2 -4)" fill="#fff"/>
        </g>
      </g>
    </g>
  </g>
</svg>
