<svg xmlns="http://www.w3.org/2000/svg" xmlns:xlink="http://www.w3.org/1999/xlink" viewBox="0 0 1628.9 969.1"><defs><style>.cls-1,.cls-11,.cls-2,.cls-7{fill:none;}.cls-2{clip-path:url(#clip-path);}.cls-3{clip-path:url(#clip-path-2);}.cls-4{fill:#fabe3c;}.cls-5{clip-path:url(#clip-path-3);}.cls-6{fill:#70af90;}.cls-10,.cls-12,.cls-13,.cls-16,.cls-17,.cls-18,.cls-19,.cls-20,.cls-21,.cls-22,.cls-23,.cls-6,.cls-8,.cls-9{fill-rule:evenodd;}.cls-7{stroke:#090e2b;stroke-linecap:round;stroke-linejoin:round;stroke-width:4.43px;}.cls-8{fill:#c1e94e;}.cls-14,.cls-9{fill:#0c3944;}.cls-10{fill:#fff;}.cls-11{stroke:#0c3944;stroke-miterlimit:1.95;stroke-width:2.92px;}.cls-12{fill:#fcf6a0;}.cls-13,.cls-15{fill:#c7d2f2;}.cls-16{fill:#fff30d;}.cls-17{fill:#e36164;}.cls-18{fill:#915b3c;}.cls-19{fill:#191847;}.cls-20{fill:#784931;}.cls-21{fill:#9ba4bc;}.cls-22{fill:#f3976b;}.cls-23{fill:#dde3e9;}</style><clipPath id="clip-path"><rect class="cls-1" width="965.87" height="1040"/></clipPath><clipPath id="clip-path-2" transform="translate(-5.87 -25.4)"><rect class="cls-2" x="0.5" y="0.5" width="964.87" height="1039"/></clipPath><clipPath id="clip-path-3" transform="translate(-5.87 -25.4)"><rect class="cls-1" x="5.87" y="60.69" width="894.08" height="933.81"/></clipPath></defs><g id="Capa_2" data-name="Capa 2"><g id="Capa_1-2" data-name="Capa 1"><g class="cls-3"><g id="Grupo_33" data-name="Grupo 33"><path id="Rectángulo_6" data-name="Rectángulo 6" class="cls-4" d="M275.36,416.24,1243.48,44.61c148.49-57,315.08,17.17,372.08,165.66h0c57,148.49-17.17,315.08-165.66,372.08L481.78,954c-148.5,57-315.08-17.17-372.08-165.66h0C52.69,639.82,126.86,473.24,275.36,416.24Z" transform="translate(-5.87 -25.4)"/></g><g id="Grupo_31" data-name="Grupo 31"><g class="cls-5"><g id="Grupo_30" data-name="Grupo 30"><path id="Trazado_16" data-name="Trazado 16" class="cls-6" d="M681.07,880.24c-21.2-28.62,10-35.54-4.45-62.49-17.56-32.65,7.64-26.1-3.21-59-8.6-26-23.6-27.12-24.93-64.18s-68.09-39.15-53.66,12.64-22.69,39-16.16,76.67c8.73,50.3-26.3,30.16-15.14,68.87,9.49,32.93-31,88.13,65.22,101.08,85.62-4.37,73.54-45,52.33-73.63" transform="translate(-5.87 -25.4)"/><path id="Trazado_17" data-name="Trazado 17" class="cls-7" d="M607.49,820.65s3.53,15.75,20.42,32.09" transform="translate(-5.87 -25.4)"/><path id="Trazado_18" data-name="Trazado 18" class="cls-7" d="M591.93,882.89s6.23,15.51,36,31.6" transform="translate(-5.87 -25.4)"/><path id="Trazado_19" data-name="Trazado 19" class="cls-7" d="M658.06,845.93s-3.9,24.79-30.15,42.79" transform="translate(-5.87 -25.4)"/><path id="Trazado_20" data-name="Trazado 20" class="cls-8" d="M857.21,766.43c-18.48-45.46,8.92-77.54-28.67-163.64s-88.79-86.4-96.55-14.17S663.86,706.7,691.7,771.89C719.06,836,662.38,851,680.77,898.47c23.37,60.39,100.74,62.7,100.74,62.7,84.26,0,98-27.82,104.53-52,17.24-63.39-20.85-123.14-28.83-142.75" transform="translate(-5.87 -25.4)"/><path id="Trazado_21" data-name="Trazado 21" class="cls-7" d="M821.43,688.89s-6.82,34.6-39.39,70.5" transform="translate(-5.87 -25.4)"/><path id="Trazado_22" data-name="Trazado 22" class="cls-7" d="M833.58,833.29s-9,34.6-52,70.5" transform="translate(-5.87 -25.4)"/><path id="Trazado_23" data-name="Trazado 23" class="cls-7" d="M738.77,762.3s5.59,41.13,43.28,71" transform="translate(-5.87 -25.4)"/><line id="Línea_10" data-name="Línea 10" class="cls-7" x1="621.56" y1="966.89" x2="621.56" y2="759.27"/><line id="Línea_11" data-name="Línea 11" class="cls-7" x1="775.69" y1="963.97" x2="775.69" y2="620.7"/><path id="Trazado_24" data-name="Trazado 24" class="cls-9" d="M620.8,446.47h-488a11.23,11.23,0,0,1-11.24-11.23h0V90.65a11.24,11.24,0,0,1,11.24-11.24H620.8A11.24,11.24,0,0,1,632,90.65h0V435.23a11.24,11.24,0,0,1-11.24,11.24h0" transform="translate(-5.87 -25.4)"/><path id="Trazado_25" data-name="Trazado 25" class="cls-10" d="M600.14,429.21h-488A11.24,11.24,0,0,1,100.85,418h0V73.39a11.23,11.23,0,0,1,11.23-11.24H600.14a11.24,11.24,0,0,1,11.24,11.24h0V418a11.24,11.24,0,0,1-11.24,11.24h0" transform="translate(-5.87 -25.4)"/><path id="Rectángulo_44" data-name="Rectángulo 44" class="cls-11" d="M112.09,62.15H600.14a11.23,11.23,0,0,1,11.24,11.23h0V418a11.24,11.24,0,0,1-11.24,11.24h-488A11.24,11.24,0,0,1,100.85,418h0V73.38a11.23,11.23,0,0,1,11.24-11.23Z" transform="translate(-5.87 -25.4)"/><path id="Trazado_26" data-name="Trazado 26" class="cls-12" d="M399.47,241.59H195.55a32.72,32.72,0,0,1-.36-65.43H399.47a32.72,32.72,0,0,1,0,65.43" transform="translate(-5.87 -25.4)"/><path id="Trazado_27" data-name="Trazado 27" class="cls-13" d="M514.81,240.69h0A32.72,32.72,0,1,1,547.52,208a32.72,32.72,0,0,1-32.71,32.72" transform="translate(-5.87 -25.4)"/><path id="Trazado_28" data-name="Trazado 28" class="cls-14" d="M580.45,87.4a2.19,2.19,0,0,1,3.17,3l-.08.08-20.42,20.42a2.19,2.19,0,0,1-3.17-3l.08-.09Z" transform="translate(-5.87 -25.4)"/><path id="Trazado_29" data-name="Trazado 29" class="cls-14" d="M560,87.4a2.19,2.19,0,0,1,3-.07l.08.07,20.43,20.43a2.19,2.19,0,0,1-3,3.17l-.08-.08L560,90.5a2.18,2.18,0,0,1,0-3.1" transform="translate(-5.87 -25.4)"/><path id="Trazado_30" data-name="Trazado 30" class="cls-15" d="M453,283.13a8.75,8.75,0,0,1,.16,17.5H171.59a8.75,8.75,0,0,1-.16-17.5Z" transform="translate(-5.87 -25.4)"/><path id="Trazado_31" data-name="Trazado 31" class="cls-15" d="M332.31,335.16a8.75,8.75,0,0,1,.16,17.5H171.59a8.75,8.75,0,0,1-.16-17.5Z" transform="translate(-5.87 -25.4)"/><path id="Trazado_32" data-name="Trazado 32" class="cls-9" d="M888.71,692.5h-488a11.24,11.24,0,0,1-11.24-11.24h0V336.67a11.25,11.25,0,0,1,11.23-11.24H888.71A11.24,11.24,0,0,1,900,336.67h0V681.26a11.24,11.24,0,0,1-11.24,11.24h0" transform="translate(-5.87 -25.4)"/><path id="Trazado_33" data-name="Trazado 33" class="cls-10" d="M868.05,675.24H380A11.24,11.24,0,0,1,368.75,664h0V319.41A11.24,11.24,0,0,1,380,308.17H868.05a11.23,11.23,0,0,1,11.23,11.24h0V664a11.24,11.24,0,0,1-11.23,11.24h0" transform="translate(-5.87 -25.4)"/><path id="Rectángulo_45" data-name="Rectángulo 45" class="cls-11" d="M380,308.17H868.05a11.24,11.24,0,0,1,11.23,11.24h0V664a11.23,11.23,0,0,1-11.23,11.24H380A11.24,11.24,0,0,1,368.75,664h0V319.41A11.25,11.25,0,0,1,380,308.17Z" transform="translate(-5.87 -25.4)"/><path id="Trazado_34" data-name="Trazado 34" class="cls-16" d="M667.38,487.62H463.46a32.72,32.72,0,0,1-.36-65.43H667.38a32.72,32.72,0,0,1,0,65.43" transform="translate(-5.87 -25.4)"/><path id="Trazado_35" data-name="Trazado 35" class="cls-13" d="M782.71,486.72h0A32.72,32.72,0,1,1,815.43,454a32.72,32.72,0,0,1-32.72,32.71" transform="translate(-5.87 -25.4)"/><path id="Trazado_36" data-name="Trazado 36" class="cls-14" d="M848.36,333.43a2.19,2.19,0,0,1,3.17,3l-.08.09L831,357a2.19,2.19,0,0,1-3.17-3l.08-.09Z" transform="translate(-5.87 -25.4)"/><path id="Trazado_37" data-name="Trazado 37" class="cls-14" d="M827.94,333.43a2.19,2.19,0,0,1,3-.08l.08.08,20.42,20.42a2.19,2.19,0,0,1-3,3.17l-.08-.07-20.42-20.42a2.18,2.18,0,0,1,0-3.1" transform="translate(-5.87 -25.4)"/><path id="Trazado_38" data-name="Trazado 38" class="cls-15" d="M720.9,529.16a8.75,8.75,0,0,1,.16,17.5H439.5a8.75,8.75,0,0,1-.16-17.5Z" transform="translate(-5.87 -25.4)"/><path id="Trazado_39" data-name="Trazado 39" class="cls-15" d="M600.22,581.19a8.75,8.75,0,0,1,.16,17.5H439.5a8.75,8.75,0,0,1-.16-17.5Z" transform="translate(-5.87 -25.4)"/><path id="Trazado_40" data-name="Trazado 40" class="cls-17" d="M146,791.66h0a20.4,20.4,0,0,1-11-26.59l11.91-28.63a20.35,20.35,0,1,1,37.66,15.42l-.09.21-11.9,28.62a20.41,20.41,0,0,1-26.6,11" transform="translate(-5.87 -25.4)"/><path id="Trazado_41" data-name="Trazado 41" class="cls-17" d="M657.63,586.39h0A20.41,20.41,0,0,1,678,566h31a20.35,20.35,0,0,1,0,40.7H678a20.41,20.41,0,0,1-20.35-20.35" transform="translate(-5.87 -25.4)"/><path id="Trazado_42" data-name="Trazado 42" class="cls-18" d="M208.75,431.12c-7.8-7.16-13.61-16.4-14.19-27.47-1.66-31.92,43.24-30.37,53.77-15.45s14.48,55.56,3.77,59.77c-4.28,1.68-14,0-24.31-4.54L239,485.21l-35.49,4.36Z" transform="translate(-5.87 -25.4)"/><path id="Trazado_43" data-name="Trazado 43" class="cls-19" d="M225.85,372.27c-4.78-.19-17.43.83-19.76,1.12-1.48.18-3.05.71-4.1-.54-.85-1-.82-3-1.2-4.22-.43-1.47-1-2.91-1.51-4.35a45.32,45.32,0,0,0-6.19-11.4,37.09,37.09,0,0,0-19.41-13.68c-8.71-2.54-18.17-2.2-27-.39-9.42,1.94-17.65,6.14-26.28,10.2a57.31,57.31,0,0,1-26.18,5.8c-9.19-.28-16.61-4.33-24.8-8-8.38-3.8-17.66-5.81-26.79-4-8.52,1.72-16,6.25-22.53,11.86C14,359.92,9.18,365.94,7,373.84c-2.34,8.49-1.25,17.36,5.11,23.83,9.22,9.38,24.3,10.25,36.55,8.47A67.45,67.45,0,0,0,69,399.79c8.55-4.25,15.63-10.52,23.46-15.87a64.85,64.85,0,0,1,11.63-6.4c4-1.68,8-2.71,12-.68,4.27,2.16,8.13,4.31,12.86,5.4a38.65,38.65,0,0,0,13.85.77c9-1.17,17.5-5.06,26-8,6.93-2.4,14.37-4.86,21.8-4.28,3.1.24,7.69,1,9.17,4-18,5.6-22.44,29.26-15.2,45.34,3.91,8.68,22,17.16,28,11.6,3.78-3.51.78-7.14-1.17-9.55-3.73-4.6-5.59-10.88-.24-15.07,4.62-3.6,10.73,2.86,10.83,2.85,1.35-.28,12.37-8.43,19.32-19.19,8.1-.51,8.67-6,6.22-10.07s-15.11-8.08-21.7-8.35" transform="translate(-5.87 -25.4)"/><path id="Trazado_44" data-name="Trazado 44" class="cls-20" d="M215.68,611.38l54.57,188.06,25.67,141.2h25.77L296,611.38Z" transform="translate(-5.87 -25.4)"/><path id="Trazado_45" data-name="Trazado 45" class="cls-18" d="M191.15,611.38c3.81,97.7,2.31,151,1.46,159.85s-5.7,68.33-38.67,172.39h26.8c43.67-99.83,58.91-159.28,63.92-172.39s19.8-66.39,41.39-159.85Z" transform="translate(-5.87 -25.4)"/><path id="Trazado_46" data-name="Trazado 46" class="cls-21" d="M214.51,611.38q21.28,97.07,73.65,309.89h37.69c2.78-145.63-9.06-241.48-29.56-309.89Z" transform="translate(-5.87 -25.4)"/><path id="Trazado_47" data-name="Trazado 47" class="cls-13" d="M191,611.38c3.73,97.7-5.93,193.94-35.87,311.41h40.2c43.74-98.34,75.1-194.11,96.52-311.41Z" transform="translate(-5.87 -25.4)"/><path id="Trazado_48" data-name="Trazado 48" class="cls-19" d="M150.12,963l1.48-23.84q13,3.81,32.53-3,21,14.9,52.91,20.33a3,3,0,0,1,2.43,3.44h0a1.55,1.55,0,0,1-.07.31l-2,7.21H153.08Z" transform="translate(-5.87 -25.4)"/><path id="Trazado_49" data-name="Trazado 49" class="cls-19" d="M290.17,963l1.48-23.84q13,3.81,32.53-3,21,14.9,52.91,20.33a3,3,0,0,1,2.43,3.44h0a2.82,2.82,0,0,1-.07.31l-2,7.21H293.13Z" transform="translate(-5.87 -25.4)"/><path id="Trazado_50" data-name="Trazado 50" class="cls-18" d="M338.71,577.56l52.86,26.12a128.08,128.08,0,0,1,34.07,7.17c2.34,1.48,5.42,4.76-3,5.59s-17.32,2.09-18,5.14,5,5.56,3.35,9.81q-1.65,4.25-25.38-15.38l-49.74-11ZM159.23,610.43l30.68-5.29q-12.24,96.68-13.51,102.69c-1.91,9,7.53,20.56,11.82,26.9-9.22,6.25-11.07-10.52-22.66-2.43C155,739.7,147.93,751,133.17,745.09c-1.81-.72-4.28-4.21-.47-7.94,9.49-9.3,22.76-25,24.11-29.64q2.76-9.48,2.42-97.08" transform="translate(-5.87 -25.4)"/><path id="Trazado_51" data-name="Trazado 51" class="cls-22" d="M223.68,466.4,236,462c54.24,32.36,87.35,107.08,152.35,138.29l-10.86,19.66c-102.28,5.26-143.9-85.66-153.8-153.54" transform="translate(-5.87 -25.4)"/><path id="Trazado_52" data-name="Trazado 52" class="cls-23" d="M196.48,635.6l112.26-19.8c5.13-.9,2.86-8.14,1.46-11.75-16.17-41.62-57.77-82.23-68.6-143.64l-33.28.63c-19.19,47.8-19.1,102.47-11.84,174.56" transform="translate(-5.87 -25.4)"/><path id="Trazado_53" data-name="Trazado 53" class="cls-22" d="M175.35,510.52A18.77,18.77,0,0,1,162.51,503c-15.6-19.27-13.4-31.78-1.43-37.88s24.65-.12,44.8-3.67a19.62,19.62,0,0,1,3.05-.33l10.24-1.21Q288.86,600.1,278,653l-88.35,15.58a305.6,305.6,0,0,1-9.6,33.46L156,706.27Q133.21,597,175.35,510.52" transform="translate(-5.87 -25.4)"/><path id="Trazado_54" data-name="Trazado 54" class="cls-17" d="M200,614.55q10.32,34.14,22.48,48.24l-32.79,5.78q5.39-23,10.31-54" transform="translate(-5.87 -25.4)"/></g></g></g></g></g></g></svg>